REM DIRINDEX 1\2,1\3,1\4,1\5,1\6
REM DIRNAME cjc129,folder01,folder02,folder03,folder04,folder05
TITLE ""
FILE "DISC3Track05.mp3" MP3
  TRACK 01 AUDIO
    TITLE "0:"
    INDEX 01 00:00:00
  TRACK 02 AUDIO
    TITLE "3:cjc129_2170"
    INDEX 01 00:00:05
  TRACK 03 AUDIO
    TITLE "0:"
    INDEX 01 00:01:38
  TRACK 04 AUDIO
    TITLE "5:cjc129_2171"
    INDEX 01 00:01:71
  TRACK 05 AUDIO
    TITLE "0:"
    INDEX 01 00:06:12
  TRACK 06 AUDIO
    TITLE "4:cjc129_2172"
    INDEX 01 00:07:02
  TRACK 07 AUDIO
    TITLE "0:"
    INDEX 01 00:08:34
  TRACK 08 AUDIO
    TITLE "6:cjc129_2173"
    INDEX 01 00:08:70
  TRACK 09 AUDIO
    TITLE "0:"
    INDEX 01 00:13:06
  TRACK 10 AUDIO
    TITLE "3:cjc129_2174"
    INDEX 01 00:14:56
  TRACK 11 AUDIO
    TITLE "0:"
    INDEX 01 00:15:72
  TRACK 12 AUDIO
    TITLE "5:cjc129_2175"
    INDEX 01 00:16:30
  TRACK 13 AUDIO
    TITLE "0:"
    INDEX 01 00:20:63
  TRACK 14 AUDIO
    TITLE "4:cjc129_2176"
    INDEX 01 00:21:53
  TRACK 15 AUDIO
    TITLE "0:"
    INDEX 01 00:22:68
  TRACK 16 AUDIO
    TITLE "6:cjc129_2177"
    INDEX 01 00:23:26
  TRACK 17 AUDIO
    TITLE "0:"
    INDEX 01 00:27:45
  TRACK 18 AUDIO
    TITLE "2:cjc129_2178"
    INDEX 01 00:29:19
  TRACK 19 AUDIO
    TITLE "0:"
    INDEX 01 00:33:21
  TRACK 20 AUDIO
    TITLE "3:cjc129_2179"
    INDEX 01 00:34:34
  TRACK 21 AUDIO
    TITLE "0:"
    INDEX 01 00:35:72
  TRACK 22 AUDIO
    TITLE "5:cjc129_2180"
    INDEX 01 00:36:31
  TRACK 23 AUDIO
    TITLE "0:"
    INDEX 01 00:40:42
  TRACK 24 AUDIO
    TITLE "4:cjc129_2181"
    INDEX 01 00:41:32
  TRACK 25 AUDIO
    TITLE "0:"
    INDEX 01 00:42:66
  TRACK 26 AUDIO
    TITLE "6:cjc129_2182"
    INDEX 01 00:43:31
  TRACK 27 AUDIO
    TITLE "0:"
    INDEX 01 00:49:14
  TRACK 28 AUDIO
    TITLE "3:cjc129_2183"
    INDEX 01 00:50:66
  TRACK 29 AUDIO
    TITLE "0:"
    INDEX 01 00:53:64
  TRACK 30 AUDIO
    TITLE "5:cjc129_2184"
    INDEX 01 00:54:21
  TRACK 31 AUDIO
    TITLE "0:"
    INDEX 01 00:55:73
  TRACK 32 AUDIO
    TITLE "4:cjc129_2185"
    INDEX 01 00:56:63
  TRACK 33 AUDIO
    TITLE "0:"
    INDEX 01 00:59:61
  TRACK 34 AUDIO
    TITLE "6:cjc129_2186"
    INDEX 01 01:00:19
  TRACK 35 AUDIO
    TITLE "0:"
    INDEX 01 01:04:60
  TRACK 36 AUDIO
    TITLE "3:cjc129_2187"
    INDEX 01 01:06:34
  TRACK 37 AUDIO
    TITLE "0:"
    INDEX 01 01:07:74
  TRACK 38 AUDIO
    TITLE "5:cjc129_2188"
    INDEX 01 01:08:29
  TRACK 39 AUDIO
    TITLE "0:"
    INDEX 01 01:12:56
  TRACK 40 AUDIO
    TITLE "4:cjc129_2189"
    INDEX 01 01:13:47
  TRACK 41 AUDIO
    TITLE "0:"
    INDEX 01 01:15:13
  TRACK 42 AUDIO
    TITLE "6:cjc129_2190"
    INDEX 01 01:15:42
  TRACK 43 AUDIO
    TITLE "0:"
    INDEX 01 01:20:12
  TRACK 44 AUDIO
    TITLE "3:cjc129_2191"
    INDEX 01 01:21:63
  TRACK 45 AUDIO
    TITLE "0:"
    INDEX 01 01:23:46
  TRACK 46 AUDIO
    TITLE "5:cjc129_2192"
    INDEX 01 01:23:73
  TRACK 47 AUDIO
    TITLE "0:"
    INDEX 01 01:26:09
  TRACK 48 AUDIO
    TITLE "4:cjc129_2193"
    INDEX 01 01:27:01
  TRACK 49 AUDIO
    TITLE "0:"
    INDEX 01 01:28:55
  TRACK 50 AUDIO
    TITLE "6:cjc129_2194"
    INDEX 01 01:29:11
  TRACK 51 AUDIO
    TITLE "0:"
    INDEX 01 01:33:52
  TRACK 52 AUDIO
    TITLE "3:cjc129_2195"
    INDEX 01 01:35:27
  TRACK 53 AUDIO
    TITLE "0:"
    INDEX 01 01:36:52
  TRACK 54 AUDIO
    TITLE "5:cjc129_2196"
    INDEX 01 01:37:07
  TRACK 55 AUDIO
    TITLE "0:"
    INDEX 01 01:39:21
  TRACK 56 AUDIO
    TITLE "4:cjc129_2197"
    INDEX 01 01:40:13
  TRACK 57 AUDIO
    TITLE "0:"
    INDEX 01 01:41:36
  TRACK 58 AUDIO
    TITLE "6:cjc129_2198"
    INDEX 01 01:41:67
  TRACK 59 AUDIO
    TITLE "0:"
    INDEX 01 01:46:70
